<svg height="512pt" viewBox="-53 0 512 512" width="512pt" xmlns="http://www.w3.org/2000/svg"><path d="m398.953125 121.644531v382.75h-391.347656v-496.789062h277.300781zm0 0" fill="#f2f2f2"/><path d="m398.953125 121.644531h-114.046875v-114.039062" fill="#ccc"/><path d="m189.113281 95.8125v59.84375c0 33.054688-26.792969 59.847656-59.84375 59.847656s-59.84375-26.792968-59.84375-59.847656v-59.84375" fill="#f9c2af"/><path d="m128.84375 215.5c-16.359375-.109375-31.148438-6.789062-41.890625-17.523438-10.828125-10.832031-17.527344-25.789062-17.527344-42.316406v-59.847656h26.941407v59.84375c0 16.527344 3.683593 31.488281 9.636718 42.320312 5.863282 10.660157 13.921875 17.316407 22.839844 17.523438zm0 0" fill="#ea9e8f"/><path d="m174.28125 112.074219c-21.6875 7.8125-42.679688 5.183593-57.527344 1.046875 0 0-.003906 0-.003906-.007813-12.929688-3.601562-21.195312-8.351562-21.195312-8.351562s-5.457032 26.261719-26.128907 26.261719c0 0-13.75-24.324219-13.320312-46.828126.222656-11.671874 9.847656-20.402343 20.785156-20.402343 2.042969 0 4.132813.300781 6.214844.953125 5.859375-15.730469 21.335937-25.6875 38.089843-24.667969 2.609376.160156 5.234376.367187 7.871094.605469.503906.042968 1.015625.089844 1.519532.136718.050781.003907.101562.011719.15625.015626 27.347656 2.566406 55.054687 7.570312 71.332031-10.4375 0 0 26.902343 61.972656-27.792969 81.675781zm0 0" fill="#515f75"/><path d="m121.195312 40.074219c2.609376.164062 5.234376.371093 7.871094.609375-24.132812-1.019532-43.308594 52.128906-12.316406 72.429687-12.929688-3.601562-21.195312-8.355469-21.195312-8.355469s-5.460938 26.265626-26.128907 26.265626c0 0-13.753906-24.324219-13.320312-46.832032.222656-11.667968 9.847656-20.398437 20.785156-20.398437 2.042969 0 4.132813.300781 6.210937.953125 5.859376-15.734375 21.335938-25.6875 38.09375-24.671875zm0 0" fill="#3b485b"/><path d="m130.75 40.839844c-.054688-.007813-.109375-.015625-.164062-.019532.050781.003907.101562.007813.15625.015626zm0 0" fill="#f4af9d"/><g fill="#ffc627"><path d="m111.015625 277.566406c0 12.878906-10.4375 23.316406-23.316406 23.316406-12.878907 0-23.320313-10.4375-23.320313-23.316406s10.441406-23.320312 23.320313-23.320312c12.878906 0 23.316406 10.441406 23.316406 23.320312zm0 0"/><path d="m111.015625 441.808594c0 12.878906-10.4375 23.320312-23.316406 23.320312-12.878907 0-23.320313-10.441406-23.320313-23.320312 0-12.875 10.441406-23.316406 23.320313-23.316406 12.878906 0 23.316406 10.441406 23.316406 23.316406zm0 0"/><path d="m111.015625 359.6875c0 12.878906-10.4375 23.320312-23.316406 23.320312-12.878907 0-23.320313-10.441406-23.320313-23.320312s10.441406-23.320312 23.320313-23.320312c12.878906 0 23.316406 10.441406 23.316406 23.320312zm0 0"/></g><path d="m404.332031 116.265625-114.050781-114.039063c-1.425781-1.425781-3.359375-2.226562-5.375-2.226562h-277.300781c-4.199219 0-7.605469 3.40625-7.605469 7.605469v496.789062c0 4.199219 3.40625 7.605469 7.605469 7.605469h24.328125c4.199218 0 7.605468-3.40625 7.605468-7.605469s-3.40625-7.601562-7.605468-7.601562h-16.726563v-481.585938h262.09375v106.4375c0 4.199219 3.40625 7.601563 7.605469 7.601563h106.445312v53.015625c0 4.199219 3.402344 7.605469 7.601563 7.605469s7.605469-3.40625 7.605469-7.605469v-60.617188c0-2.019531-.800782-3.953125-2.226563-5.378906zm-111.824219-90.304687 88.085938 88.078124h-88.085938zm0 0"/><path d="m398.953125 205.074219c-4.199219 0-7.601563 3.40625-7.601563 7.605469v284.113281h-329c-4.199218 0-7.601562 3.402343-7.601562 7.601562s3.402344 7.605469 7.601562 7.605469h336.601563c4.199219 0 7.605469-3.40625 7.605469-7.605469v-291.714843c0-4.199219-3.40625-7.605469-7.605469-7.605469zm0 0"/><path d="m150.558594 135.117188c-4.199219 0-7.605469 3.40625-7.605469 7.605468v8.3125c0 4.203125 3.40625 7.605469 7.605469 7.605469 4.199218 0 7.605468-3.402344 7.605468-7.605469v-8.3125c0-4.199218-3.40625-7.605468-7.605468-7.605468zm0 0"/><path d="m115.585938 151.035156v-8.3125c0-4.199218-3.40625-7.605468-7.605469-7.605468s-7.601563 3.40625-7.601563 7.605468v8.3125c0 4.203125 3.402344 7.605469 7.601563 7.605469s7.605469-3.402344 7.605469-7.605469zm0 0"/><path d="m203.304688 22.894531c-2.554688-.417969-5.140626.484375-6.875 2.402344-12.082032 13.367187-33.804688 11.140625-56.800782 8.785156-5.882812-.601562-11.96875-1.226562-17.972656-1.59375-18.09375-1.09375-34.660156 8.257813-43.023438 23.746094-6.484374-.402344-12.921874 1.425781-18.359374 5.347656-7.308594 5.273438-11.597657 13.460938-11.769532 22.464844-.398437 20.898437 10.007813 42.546875 13.320313 48.894531v22.714844c0 18.019531 7.015625 34.957031 19.753906 47.699219 12.738281 12.738281 29.675781 19.753906 47.691406 19.753906 37.191407 0 67.449219-30.257813 67.449219-67.453125v-47.453125c6.460938-5.332031 11.390625-11.851563 14.707031-19.53125 11.949219-27.667969-1.785156-59.941406-2.375-61.300781-1.03125-2.371094-3.195312-4.058594-5.746093-4.476563zm-21.796876 132.761719c0 28.808594-23.433593 52.242188-52.238281 52.242188-13.953125 0-27.074219-5.429688-36.9375-15.296876-9.867187-9.867187-15.300781-22.988281-15.300781-36.945312v-17.953125c12.695312-3.230469 19.578125-14.265625 23.007812-22.355469 14.167969 6.027344 44.566407 15.503906 76.820313 3.882813 1.601563-.578125 3.140625-1.207031 4.648437-1.859375zm15.925782-72.953125c-4.417969 10.183594-13.078125 17.660156-25.730469 22.21875-36.628906 13.195313-72.019531-6.5625-72.363281-6.753906-2.109375-1.214844-4.675782-1.34375-6.902344-.347657-2.226562 1-3.835938 3.003907-4.332031 5.390626-.039063.179687-3.472657 16.09375-14.355469 19.550781-3.648438-7.644531-10.324219-23.710938-10.042969-38.425781.078125-4.175782 2.074219-7.976563 5.464844-10.421876 2.296875-1.660156 4.980469-2.515624 7.714844-2.515624 1.320312 0 2.652343.199218 3.960937.605468 3.855469 1.203125 7.976563-.824218 9.382813-4.605468 4.699219-12.625 16.96875-20.5625 30.5-19.730469 5.691406.347656 11.617187.953125 17.351562 1.542969 21.449219 2.199218 43.503907 4.457031 60.242188-5.871094 2.613281 9.996094 4.980469 25.839844-.890625 39.363281zm0 0"/><path d="m138.574219 171.390625c-2.484375 2.484375-5.789063 3.855469-9.304688 3.855469s-6.820312-1.371094-9.304687-3.855469c-2.96875-2.96875-7.785156-2.96875-10.753906 0s-2.96875 7.785156 0 10.753906c5.359374 5.359375 12.480468 8.308594 20.058593 8.308594s14.699219-2.949219 20.058594-8.308594c2.96875-2.96875 2.96875-7.785156 0-10.753906s-7.785156-2.96875-10.753906 0zm0 0"/><path d="m231.667969 178.714844h101.386719c4.199218 0 7.601562-3.40625 7.601562-7.605469s-3.402344-7.605469-7.601562-7.605469h-101.386719c-4.199219 0-7.605469 3.40625-7.605469 7.605469s3.40625 7.605469 7.605469 7.605469zm0 0"/><path d="m231.667969 219.269531h101.386719c4.199218 0 7.601562-3.40625 7.601562-7.605469 0-4.199218-3.402344-7.605468-7.601562-7.605468h-101.386719c-4.199219 0-7.605469 3.40625-7.605469 7.605468 0 4.199219 3.40625 7.605469 7.605469 7.605469zm0 0"/><path d="m87.699219 246.640625c-17.050781 0-30.925781 13.875-30.925781 30.925781 0 17.050782 13.875 30.921875 30.925781 30.921875s30.921875-13.871093 30.921875-30.921875c0-17.050781-13.871094-30.925781-30.921875-30.925781zm0 46.640625c-8.667969 0-15.714844-7.050781-15.714844-15.714844 0-8.667968 7.046875-15.714844 15.714844-15.714844 8.664062 0 15.714843 7.046876 15.714843 15.714844 0 8.664063-7.050781 15.714844-15.714843 15.714844zm0 0"/><path d="m87.699219 410.886719c-17.050781 0-30.925781 13.871093-30.925781 30.921875 0 17.054687 13.875 30.925781 30.925781 30.925781s30.921875-13.871094 30.921875-30.925781c0-17.050782-13.871094-30.921875-30.921875-30.921875zm0 46.636719c-8.667969 0-15.714844-7.046876-15.714844-15.714844 0-8.664063 7.046875-15.714844 15.714844-15.714844 8.664062 0 15.714843 7.050781 15.714843 15.714844 0 8.667968-7.050781 15.714844-15.714843 15.714844zm0 0"/><path d="m87.699219 328.765625c-17.050781 0-30.925781 13.871094-30.925781 30.921875s13.875 30.921875 30.925781 30.921875 30.921875-13.871094 30.921875-30.921875-13.871094-30.921875-30.921875-30.921875zm0 46.636719c-8.667969 0-15.714844-7.050782-15.714844-15.714844s7.046875-15.714844 15.714844-15.714844c8.664062 0 15.714843 7.050782 15.714843 15.714844s-7.050781 15.714844-15.714843 15.714844zm0 0"/><path d="m142.953125 277.566406c0 4.199219 3.40625 7.601563 7.605469 7.601563h182.496094c4.199218 0 7.601562-3.402344 7.601562-7.601563 0-4.199218-3.402344-7.605468-7.601562-7.605468h-182.496094c-4.199219 0-7.605469 3.40625-7.605469 7.605468zm0 0"/><path d="m333.054688 352.082031h-182.496094c-4.199219 0-7.605469 3.40625-7.605469 7.605469s3.40625 7.605469 7.605469 7.605469h182.496094c4.199218 0 7.601562-3.40625 7.601562-7.605469s-3.402344-7.605469-7.601562-7.605469zm0 0"/><path d="m333.054688 434.207031h-182.496094c-4.199219 0-7.605469 3.402344-7.605469 7.601563 0 4.203125 3.40625 7.605468 7.605469 7.605468h182.496094c4.199218 0 7.601562-3.402343 7.601562-7.605468 0-4.199219-3.402344-7.601563-7.601562-7.601563zm0 0"/></svg>